<?xml version="1.0" encoding="utf-8"?><!-- Uploaded to: SVG Repo, www.svgrepo.com, Generator: SVG Repo Mixer Tools -->
<svg width="800px" height="800px" viewBox="0 0 24 24" fill="none" xmlns="http://www.w3.org/2000/svg">
<path fill-rule="evenodd" clip-rule="evenodd" d="M21.7957 3.191C22.0681 2.91855 22.0681 2.4768 21.7957 2.20434C21.5232 1.93189 21.0815 1.93189 20.809 2.20434L17.9857 5.02766C16.7935 4.10187 15.3887 3.43585 13.8468 3.11846C12.6279 2.86754 11.3722 2.86754 10.1532 3.11846C5.65611 4.04418 2.33637 7.9279 2.02427 12.584L2.00003 12.9456V16.6705L2.00004 16.6733L2.00004 17.9833C2.00003 18.8229 2.33021 19.5873 2.86812 20.1452L2.20434 20.809C1.93189 21.0815 1.93189 21.5232 2.20434 21.7957C2.4768 22.0681 2.91855 22.0681 3.191 21.7957L21.7957 3.191ZM13.5655 4.48515C14.8323 4.74591 15.9924 5.28014 16.99 6.02335L9.09702 13.9163C8.60981 12.7288 7.61421 11.8052 6.36174 11.4424L6.09109 11.364C5.74679 11.2643 5.39047 11.2137 5.0323 11.2137C4.49243 11.2137 3.98799 11.3563 3.55146 11.6055C4.2132 8.04746 6.91755 5.20912 10.4346 4.48515C11.4679 4.27244 12.5322 4.27244 13.5655 4.48515Z" fill="#363853"/>
<path d="M20.5052 7.87394C20.3071 7.54348 19.8785 7.43623 19.5481 7.63439C19.2176 7.83254 19.1104 8.26107 19.3085 8.59153C19.8552 9.50318 20.2468 10.521 20.4485 11.6055C20.012 11.3563 19.5076 11.2137 18.9677 11.2137C18.6096 11.2137 18.2532 11.2643 17.9089 11.364L17.6383 11.4424C16.1034 11.8869 14.9545 13.1734 14.6537 14.7568C14.4799 15.6715 14.4799 16.6119 14.6537 17.5266C14.9545 19.11 16.1034 20.3965 17.6383 20.841L17.9089 20.9194C18.2532 21.0191 18.6096 21.0698 18.9677 21.0698C20.6574 21.0698 22 19.6727 22 17.9833V16.6747L22 16.6705V12.9456L21.9758 12.584C21.8611 10.8731 21.3406 9.2671 20.5052 7.87394Z" fill="#363853"/>
</svg>